<svg width="950" height="200" xmlns="http://www.w3.org/2000/svg"><title>background</title><path fill="#fff" d="M-1-1h952v202H-1z"/><title>Layer 1</title><path d="M97.768 181.098c-65.99-47.78-89.585-78.004-89.776-115.004C7.817 32.364 36.943-.191 67.127-.003 82.2.09 114.531 12.505 125.98 22.595c5.768 5.084 8.5 4.583 21.343-3.916 34.953-23.13 69.085-23.616 91.19-1.297 35.33 35.67 28.898 78.266-18.49 122.45-25.193 23.49-80.21 65.164-86.029 65.164-1.77 0-18.072-10.754-36.226-23.898z" fill="#4e2a84"/><path d="M193.575 73.654c1.06-.164 8.757 6.506 8.902 7.85.212 1.963 5.087 1.963 6.36 1.963 1.27 0 10.385 4.253 16.532 8.832 6.147 4.58 24.164.327 25.435 0 1.272-.327 59.35-8.995 75.035-2.944 7.533 2.907 22.381-7.362 24.322-28.704-.795-14.23-17.378-14.764-20.825-10.427-2.544 1.922-6.889 1.35-5.829-2.167.964-2.355 7.419-9.61 19.342-6.42 10.107 2.704 15.954 9.207 18.122 18.768 1.431 20.609-18.6 35.82-18.6 35.82s1.59 5.397 3.816 8.832c2.226 3.434 2.861 15.21 2.543 16.683-.317 1.472 9.539 9.568 12.718 9.813 2.756.981 10.492 19.136 10.81 23.062 2.862 1.104-.318 6.624-3.815 7.36-3.498.736-4.451-4.416-4.451-6.87 0-2.453-3.498-13.984-13.354-15.21-9.856-1.227-18.44-5.398-18.44-5.398s-.636 2.454-1.908 3.435c0 0 3.18 4.17 3.18 10.304-.319 2.699-5.406 11.04-8.903 11.776 0 0-5.723 6.87-8.267 6.87-2.543 0-6.994 2.453-13.989-.491 0 0 1.272-6.133 7.63-4.416 0 0 14.944-8.832 7.631-12.758 0 0-4.451-4.906-6.995-6.87-2.543-1.962-5.087-5.151-5.723-8.831 0 0-21.302-.982-26.707-1.963-5.405-.981-15.26 1.472-15.26 2.944s1.589 15.456 4.45 18.155c0 0 .954 3.435 0 4.416-.953.981 3.498 9.078-5.087 8.342-8.107 1.104-12.082-3.803-2.543-5.398.477-5.275-12.082-27.6-20.349-24.533-10.81 1.226-7.153-6.011-17.804 5.397-11.128 10.059-30.205 17.173-31.159 21.59 0 0-5.722-.982-6.994 2.453 0 0-14.944 1.472-13.99-.49.954-1.963 1.749-6.011 7.63-4.417 0 0 13.354-4.048 26.072-25.024 0 0-1.59-5.398.636-9.814s-1.272-22.57-17.169-21.59c0 0-5.935 1.636-9.538-5.887 0 0-1.484-1.472 0-2.944s5.087-3.762 5.723-5.398c.636-1.635 2.12-4.089 10.174-6.379 3.815-3.066-.424-9.159.636-9.322z" fill="#fff"/><text stroke="#0f0f00" transform="matrix(3.05659 0 0 2.8725 -236.486 -249.844)" font-family="'Palatino Linotype', 'Book Antiqua', Palatino, serif" font-size="61" y="143.676" x="152.979" stroke-opacity="null" stroke-width="0" fill="#4e2a84">отейкин</text><text stroke="#0f0f00" font-family="'Palatino Linotype', 'Book Antiqua', Palatino, serif" font-size="200" y="162.5" x="66.5" stroke-opacity="null" stroke-width="0" fill="#fff">К</text><path d="M57.563 87.721c-.624-.112-5.151 4.457-5.237 5.378-.124 1.345-2.992 1.345-3.74 1.345-.748 0-6.11 2.913-9.726 6.05-3.615 3.137-14.213.224-14.962 0-.748-.224-34.91-6.162-44.137-2.017-4.432 1.991-13.166-5.043-14.308-19.663.468-9.748 10.223-10.114 12.25-7.143 1.497 1.316 4.053.924 3.43-1.485-.568-1.613-4.365-6.582-11.378-4.397-5.946 1.852-9.385 6.307-10.66 12.857-.842 14.117 10.94 24.537 10.94 24.537s-.935 3.698-2.244 6.05c-1.31 2.353-1.683 10.42-1.496 11.429.187 1.008-5.61 6.555-7.481 6.723-1.62.672-6.172 13.109-6.359 15.798-1.683.756.187 4.537 2.244 5.042 2.058.504 2.619-3.026 2.619-4.706 0-1.68 2.057-9.58 7.855-10.42 5.798-.84 10.847-3.698 10.847-3.698s.374 1.681 1.122 2.353c0 0-1.87 2.857-1.87 7.059.187 1.849 3.18 7.563 5.237 8.067 0 0 3.366 4.706 4.862 4.706 1.497 0 4.115 1.68 8.23-.336 0 0-.749-4.202-4.49-3.025 0 0-8.79-6.05-4.488-8.74 0 0 2.619-3.361 4.115-4.706 1.496-1.344 2.992-3.529 3.366-6.05 0 0 12.53-.672 15.71-1.344 3.18-.673 8.978 1.008 8.978 2.016 0 1.009-.936 10.588-2.619 12.437 0 0-.56 2.353 0 3.025.561.673-2.057 6.219 2.993 5.715 4.769.756 7.107-2.605 1.496-3.698-.28-3.613 7.107-18.907 11.97-16.806 6.358.84 4.207-4.118 10.473 3.697 6.546 6.89 17.767 11.765 18.328 14.79 0 0 3.367-.672 4.115 1.68 0 0 8.79 1.009 8.229-.336-.561-1.344-1.029-4.117-4.489-3.025 0 0-7.855-2.773-15.336-17.143 0 0 .935-3.697-.374-6.722-1.31-3.025.748-15.462 10.1-14.79 0 0 3.49 1.12 5.61-4.033 0 0 .873-1.009 0-2.017-.873-1.009-2.992-2.577-3.366-3.698-.374-1.12-1.247-2.8-5.985-4.37-2.244-2.1.25-6.274-.374-6.386z" fill="#fff"/><path d="M542.942 40.22c.41-.074 3.391 2.92 3.447 3.523.082.881 1.97.881 2.463.881.492 0 4.022 1.909 6.402 3.964 2.38 2.056 9.358.147 9.85 0 .493-.146 22.984-4.037 29.058-1.321 2.917 1.304 8.667-3.304 9.419-12.883-.308-6.387-6.73-6.626-8.065-4.68-.985.863-2.668.606-2.257-.972.373-1.057 2.873-4.313 7.49-2.882 3.914 1.214 6.178 4.133 7.018 8.424.554 9.25-7.203 16.076-7.203 16.076s.616 2.423 1.478 3.964c.862 1.542 1.108 6.827.985 7.488-.123.66 3.693 4.294 4.925 4.404 1.067.44 4.063 8.589 4.186 10.35 1.108.496-.123 2.974-1.478 3.304-1.354.33-1.723-1.982-1.723-3.083 0-1.101-1.355-6.276-5.172-6.827-3.816-.55-7.14-2.422-7.14-2.422s-.247 1.1-.74 1.541c0 0 1.232 1.872 1.232 4.625-.123 1.211-2.093 4.955-3.448 5.285 0 0-2.216 3.083-3.201 3.083-.985 0-2.709 1.101-5.418-.22 0 0 .493-2.753 2.955-1.982 0 0 5.787-3.964 2.955-5.726 0 0-1.723-2.202-2.708-3.083-.985-.88-1.97-2.312-2.217-3.964 0 0-8.249-.44-10.342-.88-2.093-.441-5.91.66-5.91 1.32 0 .661.616 6.938 1.724 8.149 0 0 .37 1.541 0 1.982-.37.44 1.354 4.074-1.97 3.744-3.14.495-4.679-1.707-.985-2.423.184-2.367-4.679-12.387-7.88-11.011-4.186.55-2.77-2.698-6.895 2.423-4.31 4.514-11.697 7.707-12.066 9.69 0 0-2.217-.441-2.71 1.1 0 0-5.786.661-5.417-.22.37-.88.678-2.697 2.955-1.982 0 0 5.172-1.817 10.097-11.231 0 0-.616-2.423.246-4.405.862-1.982-.493-10.13-6.649-9.69 0 0-2.298.735-3.694-2.642 0 0-.574-.66 0-1.322.575-.66 1.97-1.688 2.217-2.422.246-.734.82-1.835 3.94-2.863 1.477-1.376-.165-4.11.246-4.184z" fill-opacity="null" fill="#4e2a84"/></svg>